<svg width="72" height="71" viewBox="0 0 72 71" fill="none" xmlns="http://www.w3.org/2000/svg">
<path d="M71.1432 23.9002C70.3527 37.561 61.8892 45.7242 54.4229 52.9252C48.3856 58.7475 42.9871 63.7819 37.9186 68.3142L35.5991 70.3896L35.5185 70.461L22.7628 58.3267C18.9785 54.7276 15.0686 51.0053 11.3888 46.9062C9.12157 44.3803 7.15353 41.9505 5.36817 39.4788C-0.13968 31.8471 -1.52607 21.5788 1.75247 12.6819C4.57751 5.00822 11.3911 0.151231 19.5363 0.00350729C25.8655 -0.112175 31.701 2.64016 35.5991 7.31997C35.687 7.42081 35.77 7.52424 35.8531 7.62767C37.9875 5.18563 41.1376 2.48725 45.3611 1.13818C49.7032 -0.24788 54.3397 0.0303677 59.1448 1.97034C67.2639 5.24924 71.7485 13.4471 71.1432 23.9002Z" fill="#85C9FF"/>
<path d="M71.1432 23.9004C70.3528 37.5612 61.8892 45.7244 54.4229 52.9254C48.3856 58.7477 42.9871 63.7821 37.9186 68.3144L35.5991 70.3899L35.5991 7.31995C35.687 7.42078 35.77 7.52421 35.8531 7.62765C37.9875 5.1856 41.1376 2.48722 45.3611 1.13815C49.7032 -0.247908 54.3397 0.03034 59.1448 1.97031C67.2639 5.24945 71.7485 13.4473 71.1432 23.9004Z" fill="#00A6FF"/>
</svg>
