<svg width="161" height="163" viewBox="0 0 161 163" fill="none" xmlns="http://www.w3.org/2000/svg">
<g clip-path="url(#clip0_2_50)">
<path d="M100.326 47.3373C108.173 63.2475 103.852 77.8639 100.04 90.7595C96.9564 101.187 94.0894 110.317 91.2734 118.671L90.1233 122.08L89.9399 122.623L67.7968 117.101C61.2275 115.462 54.4371 113.769 47.6661 111.5C43.4941 110.102 39.7206 108.623 36.1278 106.976C25.0356 101.896 16.9043 91.2052 14.906 79.0756C13.1841 68.6173 17.7622 58.7798 26.8501 53.4033C34.0638 49.1352 42.6072 48.568 50.1145 51.5577C50.1176 51.5586 50.1222 51.5617 50.1255 51.5628C50.9701 47.4466 52.7964 42.3857 56.6935 38.1652C60.7035 33.8213 66.1115 31.172 72.7681 30.2855C84.0185 28.7885 94.3218 35.1621 100.326 47.3373Z" fill="#FF738E"/>
<path d="M100.326 47.3373C108.173 63.2475 103.852 77.8639 100.04 90.7595C96.9564 101.187 94.0894 110.317 91.2734 118.671L90.1233 122.08L50.1147 51.5578C50.1179 51.5587 50.1225 51.5618 50.1258 51.5629C50.9704 47.4467 52.7967 42.3858 56.6938 38.1653C60.7038 33.8214 66.1118 31.1721 72.7684 30.2856C84.0185 28.7885 94.3218 35.1621 100.326 47.3373Z" fill="#FF3C62"/>
<path d="M132.861 55.9549C138.915 68.2269 135.581 79.5033 132.641 89.4508C130.263 97.4939 128.051 104.537 125.879 110.98L124.886 113.929L124.851 114.031L107.769 109.771C102.701 108.508 97.4638 107.2 92.2406 105.45C89.0222 104.372 86.1114 103.23 83.3389 101.961C74.7825 98.041 68.5098 89.7939 66.9713 80.4378C65.642 72.3695 69.1716 64.7829 76.1833 60.6352C81.6312 57.4115 88.0649 56.9259 93.7646 59.0728C93.8908 59.1171 94.014 59.1662 94.1374 59.2151C94.7888 56.0379 96.1972 52.1365 99.205 48.879C102.298 45.5309 106.468 43.4851 111.604 42.8014C120.284 41.647 128.23 46.5644 132.861 55.9549Z" fill="#85C9FF"/>
<path d="M132.861 55.955C138.915 68.2269 135.581 79.5033 132.641 89.4508C130.263 97.4939 128.051 104.537 125.879 110.98L124.886 113.929L93.7645 59.0726C93.8907 59.1169 94.0139 59.166 94.1372 59.2149C94.7886 56.0377 96.1971 52.1363 99.2049 48.8788C102.298 45.5307 106.468 43.4849 111.604 42.8012C120.284 41.647 128.23 46.5644 132.861 55.955Z" fill="#00A6FF"/>
</g>
<defs>
<clipPath id="clip0_2_50">
<rect width="116.328" height="120.63" fill="white" transform="translate(0 57.4011) rotate(-29.5671)"/>
</clipPath>
</defs>
</svg>
