<svg width="35" height="29" viewBox="0 0 35 29" fill="none" xmlns="http://www.w3.org/2000/svg">
<path d="M32.2 1.1C33.6 0.699998 34.4 0.899997 34.6 1.69999C34.8667 2.43333 34.7667 3.2 34.3 3.99999C33.9 4.53333 33.3333 5.4 32.6 6.6C31.9333 7.8 31.2667 9.16666 30.6 10.7C29.9333 12.1667 29.5 13.6667 29.3 15.2C31.0333 15.4667 32.3 16.1 33.1 17.1C33.9 18.1 34.3 19.6333 34.3 21.7C34.3 24.0333 33.7333 25.7 32.6 26.7C31.5333 27.6333 29.7333 28.1 27.2 28.1C24.4667 28.1 22.4 27.5333 21 26.4C19.6667 25.2 19 23.2667 19 20.6C19 18.6667 19.4 16.6333 20.2 14.5C21.0667 12.3667 22.1667 10.3667 23.5 8.5C24.8333 6.56666 26.2667 4.96667 27.8 3.7C29.3333 2.36666 30.8 1.5 32.2 1.1ZM13.2 1.1C14.6 0.699998 15.4 0.899997 15.6 1.69999C15.8667 2.43333 15.7667 3.2 15.3 3.99999C14.9 4.53333 14.3333 5.4 13.6 6.6C12.9333 7.8 12.2667 9.16666 11.6 10.7C10.9333 12.1667 10.5 13.6667 10.3 15.2C12.0333 15.4667 13.3 16.1 14.1 17.1C14.9 18.1 15.3 19.6333 15.3 21.7C15.3 24.0333 14.7333 25.7 13.6 26.7C12.5333 27.6333 10.7333 28.1 8.2 28.1C5.46667 28.1 3.4 27.5333 2 26.4C0.666667 25.2 5.66244e-07 23.2667 5.66244e-07 20.6C5.66244e-07 18.6667 0.400001 16.6333 1.2 14.5C2.06667 12.3667 3.16667 10.3667 4.5 8.5C5.83333 6.56666 7.26667 4.96667 8.8 3.7C10.3333 2.36666 11.8 1.5 13.2 1.1Z" fill="#FFC2C2"/>
</svg>
