<svg width="62" height="60" viewBox="0 0 62 60" fill="none" xmlns="http://www.w3.org/2000/svg">
<path d="M59.3296 10.7421C64.1298 20.6502 60.7257 30.1279 57.7226 38.4897C55.2935 45.2512 53.0533 51.1767 50.873 56.6048L49.9826 58.82L49.8406 59.1728L35.0137 56.3665C30.6149 55.533 26.0681 54.6728 21.5532 53.4435C18.7713 52.6865 16.2621 51.8644 13.8808 50.9292C6.52879 48.0453 1.36614 41.4805 0.406622 33.7971C-0.41987 27.1723 3.00294 20.739 9.33692 17.0087C14.3647 14.0475 20.1731 13.407 25.1636 15.0725C25.1657 15.073 25.1687 15.0748 25.1709 15.0754C25.8772 12.4185 27.2797 9.12611 30.0582 6.30317C32.9172 3.39775 36.6685 1.52932 41.2087 0.746396C48.8819 -0.576095 55.6571 3.15997 59.3296 10.7421Z" fill="#FF738E"/>
</svg>
