<svg width="100" height="100" viewBox="0 0 100 100" fill="none" xmlns="http://www.w3.org/2000/svg">
<g clip-path="url(#clip0_2_9)">
<path d="M38.5886 63.5607L55.234 84.6857C55.9602 85.6072 57.3151 85.751 58.2604 85.0062L82.0502 66.261C82.9955 65.5161 83.1729 64.165 82.4467 63.2434L65.8013 42.1184L38.5886 63.5607Z" fill="#DDB185"/>
<path d="M22.3695 48.6189C25.9266 45.8161 26.5947 40.7323 23.8617 37.2638C21.1288 33.7954 16.0297 33.2558 12.4726 36.0586C8.91551 38.8614 8.24742 43.9453 10.9804 47.4137C13.7133 50.8821 18.8124 51.4217 22.3695 48.6189Z" fill="#DDB185"/>
<path d="M19.8314 45.3991C18.1011 46.7625 15.6122 46.4989 14.2829 44.8119C12.9535 43.1248 13.2796 40.6431 15.0097 39.2798C16.7398 37.9167 19.2289 38.1802 20.5582 39.8673C21.8876 41.5542 21.5615 44.0358 19.8314 45.3991Z" fill="white"/>
<path d="M55.0677 22.8543C58.6249 20.0515 59.293 14.9676 56.5601 11.4991C53.8271 8.0307 48.728 7.49114 45.1708 10.294C41.6137 13.0969 40.9455 18.1807 43.6785 21.6492C46.4115 25.1176 51.5106 25.6572 55.0677 22.8543Z" fill="#DDB185"/>
<path d="M52.5307 19.6336C50.8005 20.997 48.3114 20.7335 46.9821 19.0466C45.6527 17.3594 45.9788 14.8777 47.709 13.5144C49.4394 12.1509 51.9286 12.4145 53.2579 14.1016C54.5872 15.7884 54.2612 18.2701 52.5307 19.6336Z" fill="white"/>
<path d="M58.2292 60.4979C69.1466 51.8956 71.197 36.292 62.8088 25.6464C54.4206 15.0009 38.7703 13.3445 27.8529 21.9469C16.9355 30.5492 14.8852 46.1528 23.2734 56.7984C31.6616 67.444 47.3119 69.1003 58.2292 60.4979Z" fill="#EDD7BE"/>
<path opacity="0.1" d="M26.9611 53.8926C19.0506 43.8533 20.4251 29.406 29.763 20.5781C29.1127 21.0018 28.4749 21.4567 27.8529 21.9468C16.9356 30.5491 14.8854 46.1525 23.2736 56.7981C31.6617 67.4435 47.3119 69.1001 58.2293 60.4977C58.8513 60.0076 59.4426 59.4939 60.0067 58.9607C49.2394 65.9748 34.8715 63.9318 26.9611 53.8926Z" fill="black"/>
<path d="M59.4474 46.5535C62.6429 50.609 61.862 56.553 57.703 59.8301C53.5437 63.1073 47.582 62.4762 44.3865 58.4208L41.3621 54.5824C38.1664 50.5268 38.9473 44.5828 43.1066 41.3056C47.2656 38.0285 53.2273 38.6596 56.4229 42.7152L59.4474 46.5535Z" fill="white"/>
<path d="M69.3492 74.6103C68.9009 74.9635 68.332 75.1246 67.7687 75.0598L47.0094 72.6781C44.0764 72.3443 41.4583 70.8875 39.6391 68.5787C37.8191 66.2689 37.0155 63.3831 37.3755 60.4515C37.7357 57.5215 39.2172 54.8966 41.5462 53.0615C43.875 51.2265 46.7735 50.4 49.707 50.7349L50.6189 50.8397L50.7306 49.9284C51.0908 46.9984 52.5718 44.3738 54.9018 42.5379C57.2297 40.7036 60.1282 39.8771 63.0615 40.2122C65.9957 40.5482 68.614 42.0041 70.434 44.3139C72.2532 46.6227 73.0568 49.5092 72.6964 52.4399L70.1565 73.1786C70.0868 73.7421 69.7972 74.2573 69.3492 74.6103Z" fill="#FF8163"/>
<g opacity="0.1">
<path d="M49.7151 68.5624C46.7822 68.2286 44.164 66.7718 42.3447 64.4629C40.5249 62.1533 39.7212 59.2675 40.0811 56.3358C40.1891 55.4574 40.3997 54.6074 40.7021 53.7969C38.8597 55.5672 37.6901 57.8927 37.3756 60.4513C37.0156 63.3829 37.8193 66.2687 39.6392 68.5785C41.4584 70.8872 44.0766 72.344 47.0095 72.6778L67.7689 75.0596C68.3322 75.1243 68.9011 74.9634 69.3494 74.6102C69.7974 74.2572 70.0868 73.7419 70.1566 73.1783L70.4308 70.9391L49.7151 68.5624Z" fill="black"/>
</g>
<path d="M67.7293 48.7489C69.2182 50.6386 71.9955 50.9325 73.9333 49.4056C75.8711 47.8787 76.2353 45.1093 74.7464 43.2197L72.9054 40.8833C71.4164 38.9936 68.6389 38.7001 66.7011 40.227C64.7633 41.7539 64.3994 44.5229 65.8883 46.4125L67.7293 48.7489Z" fill="#EDD7BE"/>
<path d="M37.1114 72.8742C38.6004 74.7639 41.3778 75.0577 43.3157 73.5308C45.2534 72.0039 45.6176 69.2345 44.1287 67.3449L42.2878 65.0085C40.7988 63.1188 38.0213 62.8253 36.0834 64.3522C34.1457 65.8791 33.7815 68.6483 35.2704 70.5378L37.1114 72.8742Z" fill="#EDD7BE"/>
<path d="M47.2259 40.9003C48.2063 42.1446 47.9666 43.9683 46.6906 44.9736L45.8349 45.6479C44.5586 46.6536 42.7298 46.4598 41.7494 45.2155C40.7688 43.971 41.0082 42.1475 42.2844 41.1419L43.1402 40.4677C44.4161 39.4623 46.2453 39.6558 47.2259 40.9003Z" fill="#8C6239"/>
<path d="M60.0678 76.7571C62.5665 79.9282 61.9557 84.5762 58.7034 87.1389C55.4513 89.7014 50.7893 89.2083 48.2905 86.0371L46.247 83.4437C43.7483 80.2725 44.3589 75.6243 47.6112 73.0617C50.8634 70.4992 55.5256 70.9924 58.0244 74.1637L60.0678 76.7571Z" fill="#EDD7BE"/>
<path opacity="0.1" d="M39.5221 70.9747L37.6811 68.6383C36.5176 67.1617 36.4856 65.1477 37.4519 63.6093C36.9706 63.7715 36.5068 64.0182 36.0833 64.352C34.1455 65.8788 33.7813 68.648 35.2702 70.5376L37.1112 72.874C38.6002 74.7637 41.3777 75.0575 43.3155 73.5305C43.7391 73.1968 44.0874 72.8036 44.3575 72.3733C42.636 72.9533 40.6855 72.4512 39.5221 70.9747Z" fill="black"/>
<path opacity="0.1" d="M50.7014 84.1374L48.6579 81.544C46.4767 78.7758 46.6656 74.8822 48.9117 72.2328C48.4604 72.4606 48.0243 72.7362 47.6112 73.0617C44.3592 75.6242 43.7482 80.2724 46.247 83.4437L48.2905 86.0371C50.7892 89.2082 55.4511 89.7015 58.7034 87.1389C59.1166 86.8133 59.4865 86.4538 59.8135 86.0684C56.7123 87.6329 52.8826 86.9056 50.7014 84.1374Z" fill="black"/>
<path d="M49.2449 80.5916C48.7591 80.9744 48.058 80.8944 47.6786 80.4128L47.5821 80.2904C47.2027 79.8089 47.2888 79.1084 47.7746 78.7256C48.2604 78.3428 48.9617 78.423 49.3411 78.9044L49.4375 79.0268C49.817 79.5082 49.7308 80.2087 49.2449 80.5916Z" fill="#8C6239"/>
<path d="M54.5505 76.4112C54.0647 76.794 53.3636 76.7139 52.9842 76.2324L52.8877 76.11C52.5083 75.6285 52.5944 74.928 53.0802 74.5452C53.566 74.1624 54.2673 74.2426 54.6467 74.724L54.7431 74.8464C55.1226 75.3278 55.0364 76.0283 54.5505 76.4112Z" fill="#8C6239"/>
<path d="M51.1033 77.4516C50.6175 77.8344 49.9163 77.7542 49.5369 77.2727L49.4407 77.1507C49.0613 76.6691 49.1475 75.9688 49.6333 75.586C50.1191 75.2032 50.8203 75.2831 51.1997 75.7647L51.2959 75.8868C51.6754 76.3681 51.5891 77.0688 51.1033 77.4516Z" fill="#8C6239"/>
<path d="M56.2179 83.9854C57.4728 82.9966 57.7084 81.203 56.7442 79.9792C55.7799 78.7554 53.9809 78.5649 52.726 79.5537C51.4711 80.5425 51.2355 82.3362 52.1998 83.5599C53.164 84.7837 54.963 84.9742 56.2179 83.9854Z" fill="#8C6239"/>
<path d="M85.9741 56.3442C88.4728 59.5154 87.8621 64.1633 84.6096 66.7261C81.3574 69.2886 76.6955 68.7955 74.1967 65.6242L72.1533 63.0308C69.6546 59.8597 70.2652 55.2115 73.5175 52.6489C76.7697 50.0862 81.4318 50.5796 83.9306 53.7508L85.9741 56.3442Z" fill="#EDD7BE"/>
<path d="M75.1512 60.1787C74.6654 60.5615 73.9642 60.4815 73.5847 60L73.4883 59.8776C73.1089 59.396 73.1952 58.6954 73.6809 58.3127C74.1667 57.9299 74.8679 58.0102 75.2473 58.4916L75.3437 58.614C75.7232 59.0953 75.6371 59.7958 75.1512 60.1787Z" fill="#8C6239"/>
<path d="M80.4567 55.9983C79.9709 56.3811 79.2698 56.3011 78.8903 55.8196L78.7939 55.6972C78.4145 55.2156 78.5006 54.5151 78.9864 54.1324C79.4722 53.7496 80.1735 53.8297 80.5529 54.3112L80.6493 54.4336C81.0287 54.915 80.9426 55.6155 80.4567 55.9983Z" fill="#8C6239"/>
<path d="M77.0098 57.0385C76.524 57.4213 75.8228 57.3411 75.4434 56.8597L75.3472 56.7376C74.9678 56.256 75.054 55.5557 75.5398 55.1729C76.0256 54.7901 76.7268 54.87 77.1062 55.3516L77.2024 55.4737C77.5817 55.9551 77.4955 56.6558 77.0098 57.0385Z" fill="#8C6239"/>
<path d="M82.1245 63.5722C83.3794 62.5834 83.615 60.7898 82.6508 59.566C81.6865 58.3422 79.8875 58.1517 78.6326 59.1405C77.3777 60.1293 77.1421 61.923 78.1064 63.1467C79.0706 64.3705 80.8696 64.561 82.1245 63.5722Z" fill="#8C6239"/>
<path d="M34.5515 47.2252C35.4679 46.503 35.6316 45.1825 34.9171 44.2757C34.2026 43.3688 32.8803 43.2191 31.9639 43.9412C31.0474 44.6634 30.8837 45.9839 31.5982 46.8908C32.3128 47.7976 33.635 47.9473 34.5515 47.2252Z" fill="#603813"/>
<path d="M51.2064 34.1019C52.1229 33.3798 52.2865 32.0593 51.572 31.1524C50.8574 30.2456 49.5353 30.0958 48.6189 30.8179C47.7024 31.54 47.5388 32.8605 48.2533 33.7673C48.9679 34.6742 50.29 34.8239 51.2064 34.1019Z" fill="#603813"/>
<path d="M51.8893 63.5621L49.9707 65.0739L47.3668 61.7691C47.1071 61.4396 46.6433 61.3868 46.3108 61.6488C45.9785 61.9106 45.9214 62.3739 46.181 62.7034L49.1721 66.4994C49.4318 66.829 49.8956 66.8818 50.2279 66.62L52.7395 64.641C53.0448 64.4005 53.0972 63.9753 52.8587 63.6727C52.6204 63.3703 52.1946 63.3216 51.8893 63.5621Z" fill="#603813"/>
<path d="M51.7869 57.267C50.3029 58.4362 50.0223 60.4713 51.1479 61.8998L51.1588 61.9137C52.2969 63.3579 54.2871 63.5555 55.7878 62.373C57.2719 61.2036 57.5525 59.1687 56.4269 57.7401L56.4159 57.7262C55.278 56.2818 53.2879 56.0842 51.7869 57.267ZM52.3713 60.9133C51.724 60.0918 51.837 58.9986 52.634 58.3706C53.4392 57.7362 54.5393 57.8832 55.1928 58.7127L55.2036 58.7264C55.8509 59.5478 55.7379 60.641 54.9406 61.2692C54.1356 61.9035 53.0358 61.7566 52.3822 60.9271L52.3713 60.9133Z" fill="#603813"/>
<path d="M58.5144 52.0329C58.2263 52.2599 58.1694 52.6088 58.2411 52.8545L59.4391 56.7883L55.9355 54.7269C55.6296 54.5472 55.2953 54.5694 55.018 54.7879C54.6855 55.0499 54.6262 55.5102 54.8827 55.8357C54.9638 55.9385 55.0675 56.0042 55.1677 56.0597L59.6853 58.5532C60.0463 58.7513 60.3976 58.7294 60.7014 58.49L60.7708 58.4353C61.0746 58.196 61.178 57.8595 61.0697 57.462L59.6895 52.4432C59.6758 52.3884 59.6344 52.2485 59.5472 52.1379C59.2967 51.8201 58.8431 51.7739 58.5144 52.0329Z" fill="#603813"/>
<path d="M65.8577 52.5892L63.7172 54.2758L63.0123 53.3813L64.8059 51.968C65.1021 51.7346 65.1574 51.3087 64.929 51.0188C64.6975 50.7251 64.2684 50.6762 63.972 50.9097L62.1784 52.3229L61.5004 51.4625L63.6063 49.8032C63.9025 49.5698 63.9578 49.144 63.7294 48.8541C63.4981 48.5605 63.0687 48.5113 62.7723 48.7448L60.0805 50.8659C59.7481 51.1278 59.691 51.5912 59.9507 51.9207L62.9093 55.6755C63.169 56.0051 63.6328 56.0579 63.9652 55.796L66.6917 53.6476C66.988 53.4142 67.0433 52.9884 66.8149 52.6985C66.5833 52.4049 66.154 52.3558 65.8577 52.5892Z" fill="#603813"/>
<path d="M35.7489 56.6398C37.0674 55.6008 37.3015 53.6991 36.2717 52.3921C35.2418 51.0851 33.3381 50.8679 32.0196 51.9068C30.701 52.9457 30.467 54.8475 31.4968 56.1545C32.5267 57.4614 34.4304 57.6787 35.7489 56.6398Z" fill="#FFAA99"/>
<path d="M59.7365 37.7387C61.0551 36.6997 61.2891 34.798 60.2593 33.491C59.2294 32.184 57.3257 31.9667 56.0072 33.0057C54.6886 34.0446 54.4546 35.9464 55.4844 37.2533C56.5143 38.5603 58.418 38.7776 59.7365 37.7387Z" fill="#FFAA99"/>
</g>
<defs>
<clipPath id="clip0_2_9">
<rect width="70.9211" height="70.2996" fill="white" transform="translate(0 43.8936) rotate(-38.2364)"/>
</clipPath>
</defs>
</svg>
